<?xml version="1.0" encoding="UTF-8"?>
<svg version="1.1" xmlns="http://www.w3.org/2000/svg" width="480" height="480">
<path d="M0 0 C1.18239258 0.24459961 1.18239258 0.24459961 2.38867188 0.49414062 C24.29646549 5.19803814 46.06972815 14.02614358 65 26 C65.68449219 26.43280273 66.36898438 26.86560547 67.07421875 27.31152344 C87.37394125 40.34638277 106.12666742 56.7922731 118.4375 77.75 C121.59181625 82.86191298 125.39384507 86.06420212 130.11328125 89.71484375 C154.60716408 109.10445329 171.08691254 139.29056704 174.6875 170.1875 C174.80862515 171.79047539 174.91316142 173.39480205 175 175 C175.07927734 176.14855469 175.07927734 176.14855469 175.16015625 177.3203125 C176.09376322 203.21775796 166.83416124 232.40240549 149.31640625 251.87109375 C147.07460264 254.40451409 145.99905729 256.33915691 146.00390625 259.73828125 C148.3979235 276.71207925 158.2434796 291.53389462 171.83911133 301.78100586 C173.43431568 302.95179159 175.04500498 304.10138969 176.65625 305.25 C177.4296875 305.8275 178.203125 306.405 179 307 C179 307.33 179 307.66 179 308 C156.07597214 307.32576389 130.24527752 304.50831318 111 291 C110.01 290.34 109.02 289.68 108 289 C106.94167969 289.66644531 105.88335937 290.33289063 104.79296875 291.01953125 C51.11333538 323.92014604 -17.89863361 331.6611098 -78.72460938 317.359375 C-84.89222724 315.80504493 -90.95268972 313.96684363 -97 312 C-97.88365234 311.71672852 -98.76730469 311.43345703 -99.67773438 311.14160156 C-118.94154664 304.86595358 -137.66847427 296.09568332 -154 284 C-155.01835937 283.27554687 -156.03671875 282.55109375 -157.0859375 281.8046875 C-166.00979928 275.26008184 -173.67689125 267.55043387 -181.36499023 259.61254883 C-186.25404525 254.5946502 -191.24463379 250.03132998 -196.77685547 245.73120117 C-204.23428928 239.92396823 -211.08995783 233.377547 -217 226 C-217.68449219 225.15308594 -218.36898437 224.30617188 -219.07421875 223.43359375 C-235.46002151 202.41515565 -246.92674765 176.9712983 -248 150 C-248.05994141 148.78957031 -248.05994141 148.78957031 -248.12109375 147.5546875 C-249.01845422 112.18812787 -233.64725073 80.12846222 -209.921875 54.66796875 C-156.84372648 -0.95316956 -72.83622802 -15.28527265 0 0 Z " fill="#5592E7" transform="translate(274,81)"/>
<path d="M0 0 C1.18239258 0.24459961 1.18239258 0.24459961 2.38867188 0.49414062 C24.29646549 5.19803814 46.06972815 14.02614358 65 26 C65.68449219 26.43280273 66.36898438 26.86560547 67.07421875 27.31152344 C87.64020208 40.51735419 105.96860753 57.17357369 119 78 C119 78.66 119 79.32 119 80 C114.02431591 78.29518394 109.80520729 75.52262791 105.375 72.75 C95.64730416 66.75097804 86.2320015 61.25230769 75.46875 57.29296875 C73.00673748 56.37525913 70.5819453 55.43020869 68.15625 54.42578125 C61.49993875 51.67210397 55.10660166 49.34780376 48 48 C47.67 47.67 47.34 47.34 47 47 C42.53823596 45.99353886 38.02789971 45.25224853 33.52294922 44.46777344 C31.03239035 44.00600541 28.56943864 43.46680142 26.09765625 42.9140625 C11.1848058 39.8187885 -3.57518196 39.59141961 -18.75 39.5625 C-19.7894577 39.55650787 -20.82891541 39.55051575 -21.89987183 39.54434204 C-36.18774508 39.4895906 -49.92834032 40.51818007 -64 43 C-65.28986816 43.22421631 -66.57973633 43.44843262 -67.90869141 43.67944336 C-87.20727876 47.24111836 -106.1073724 52.31294122 -123.46484375 61.67578125 C-126 63 -126 63 -129.30859375 64.3828125 C-146.74730647 71.74069034 -161.43713145 84.08205171 -175 97 C-175.72960937 97.67675781 -176.45921875 98.35351562 -177.2109375 99.05078125 C-189.99289991 111.25174537 -200.90912956 128.03043188 -206 145 C-206.51820313 146.50046875 -206.51820313 146.50046875 -207.046875 148.03125 C-210.94828646 159.67894219 -212.15501807 171.17095258 -212.25 183.375 C-212.2593457 184.19492432 -212.26869141 185.01484863 -212.27832031 185.85961914 C-212.24872099 191.48747521 -211.3560204 196.55316188 -210 202 C-209.68080628 203.70709531 -209.3667891 205.41518505 -209.0625 207.125 C-208.21564755 211.39208599 -206.8382586 215.04067378 -205 219 C-204.39182581 220.58179833 -203.78800186 222.16527311 -203.1875 223.75 C-200.33256874 230.90912153 -196.77514259 237.73224933 -192.1875 243.9375 C-190.25833163 246.63833572 -189.62211588 247.90279946 -189 251 C-205.18257318 244.24069425 -218.70274786 225.25730578 -228 211 C-228.38929688 210.40799805 -228.77859375 209.81599609 -229.1796875 209.20605469 C-242.07741908 189.17778191 -249.8648781 162.93825337 -248 139 C-247.91878906 137.78054687 -247.83757812 136.56109375 -247.75390625 135.3046875 C-244.69559435 98.42892673 -224.78921981 65.95676609 -196.94970703 42.25439453 C-142.13922807 -2.57433867 -68.18210696 -14.30856763 0 0 Z " fill="#8FB0ED" transform="translate(274,81)"/>
<path d="M0 0 C25.78233783 17.69376125 44.58879867 47.24248076 50.4765625 77.82421875 C51.20099072 82.21944372 51.75934471 86.55152347 52 91 C52.07927734 92.14855469 52.07927734 92.14855469 52.16015625 93.3203125 C53.09376322 119.21775796 43.83416124 148.40240549 26.31640625 167.87109375 C24.07460264 170.40451409 22.99905729 172.33915691 23.00390625 175.73828125 C25.3979235 192.71207925 35.2434796 207.53389462 48.83911133 217.78100586 C50.43431568 218.95179159 52.04500498 220.10138969 53.65625 221.25 C54.4296875 221.8275 55.203125 222.405 56 223 C56 223.33 56 223.66 56 224 C33.07597214 223.32576389 7.24527752 220.50831318 -12 207 C-12.99 206.34 -13.98 205.68 -15 205 C-16.05832031 205.66644531 -17.11664063 206.33289063 -18.20703125 207.01953125 C-71.88666462 239.92014604 -140.89863361 247.6611098 -201.72460938 233.359375 C-207.89222724 231.80504493 -213.95268972 229.96684363 -220 228 C-221.32547852 227.57509277 -221.32547852 227.57509277 -222.67773438 227.14160156 C-241.92865621 220.87015295 -260.69352229 212.11338344 -277 200 C-277.52787109 199.61585938 -278.05574219 199.23171875 -278.59960938 198.8359375 C-288.66101383 191.47223988 -297.37538847 182.98017162 -306 174 C-305.34 173.67 -304.68 173.34 -304 173 C-302.29858398 173.76928711 -302.29858398 173.76928711 -300.24609375 175.02734375 C-299.48345215 175.4857666 -298.72081055 175.94418945 -297.93505859 176.41650391 C-296.69876709 177.16939697 -296.69876709 177.16939697 -295.4375 177.9375 C-273.30107904 191.0247284 -249.67270731 200.73739434 -224.15185547 204.66650391 C-221.34192498 205.10198893 -218.54816381 205.62003964 -215.75 206.125 C-213.83462482 206.4250308 -211.91785447 206.71624874 -210 207 C-208.82824219 207.185625 -207.65648437 207.37125 -206.44921875 207.5625 C-186.15341329 210.52779625 -165.28480516 209.60804638 -145 207 C-144.11634766 206.8875293 -143.23269531 206.77505859 -142.32226562 206.65917969 C-129.78314036 205.07668068 -129.78314036 205.07668068 -117.58984375 201.87109375 C-114.77558812 200.92451908 -111.93083549 200.11856023 -109.07348633 199.31323242 C-66.36148159 187.15655634 -24.98192643 161.11682853 -2.5546875 121.79296875 C12.07803406 95.29241207 19.89532724 62.66962964 11.8449707 32.71533203 C11.27333844 30.79263556 10.65149466 28.89705593 10 27 C9.76442383 26.30600098 9.52884766 25.61200195 9.28613281 24.89697266 C7.02025159 18.34961261 4.47135878 11.94351275 1.625 5.625 C0 2 0 2 0 0 Z " fill="#90B0ED" transform="translate(397,165)"/>
</svg>
